<svg xmlns="http://www.w3.org/2000/svg" xmlns:xlink="http://www.w3.org/1999/xlink" width="281.167" height="281.168" viewBox="0 0 281.167 281.168">
  <defs>
    <linearGradient id="linear-gradient" x1="0.5" x2="0.5" y2="1" gradientUnits="objectBoundingBox">
      <stop offset="0" stop-color="#64f9a0"/>
      <stop offset="1" stop-color="#5ff5f9"/>
    </linearGradient>
  </defs>
  <path id="Path_9359" data-name="Path 9359" d="M-900.034,41.589v-2a106.474,106.474,0,0,0,23.565-2.645l.444,1.949A108.414,108.414,0,0,1-900.034,41.589Zm-6.05-.165a108.4,108.4,0,0,1-12.025-1.332l.332-1.972a106.768,106.768,0,0,0,11.8,1.308Zm-17.963-2.5a107.431,107.431,0,0,1-22.82-7.966l.868-1.8A105.363,105.363,0,0,0-923.6,36.971Zm53.882-1.54-.553-1.922a105.373,105.373,0,0,0,11.207-3.927l.767,1.848A107.822,107.822,0,0,1-870.165,37.383Zm16.934-6.475-.87-1.8a106.121,106.121,0,0,0,20.062-12.636l1.248,1.563A108.175,108.175,0,0,1-853.231,30.908Zm-99.02-2.734A108.422,108.422,0,0,1-962.5,21.733l1.158-1.631a106.222,106.222,0,0,0,10.057,6.322Zm-15.086-10.083a108.684,108.684,0,0,1-17.1-17.073l1.561-1.25A106.743,106.743,0,0,0-966.09,16.527Zm139.166-3.963-1.333-1.491a106.652,106.652,0,0,0,8.4-8.4l1.492,1.334A108.955,108.955,0,0,1-828.171,14.128ZM-815.707.948-817.271-.3a106.109,106.109,0,0,0,12.635-20.075l1.8.869A108.221,108.221,0,0,1-815.707.948ZM-988.078-3.81a108.616,108.616,0,0,1-6.454-10.231l1.749-.971A106.419,106.419,0,0,0-986.449-4.97Zm-9.239-15.6a107.291,107.291,0,0,1-8-22.8l1.95-.446a105.286,105.286,0,0,0,7.853,22.374Zm196.961-5.631L-802.2-25.8a105.752,105.752,0,0,0,3.922-11.215l1.921.553A107.368,107.368,0,0,1-800.356-25.038Zm5.5-17.29-1.95-.444a106.527,106.527,0,0,0,2.631-23.567v-.244h2v.238A108.5,108.5,0,0,1-794.853-42.328ZM-1006.5-48.143a108.7,108.7,0,0,1-1.354-12.022l2-.114a106.628,106.628,0,0,0,1.329,11.8Zm.473-18.074h-2v-.122a108.537,108.537,0,0,1,2.653-23.891l1.951.442a106.539,106.539,0,0,0-2.6,23.449Zm211.678-6.3a106.624,106.624,0,0,0-1.343-11.8l1.972-.338a109.023,109.023,0,0,1,1.368,12.022Zm-2.508-17.623a105.337,105.337,0,0,0-7.879-22.365l1.8-.873a107.354,107.354,0,0,1,8.029,22.791Zm-205.094-5.4-1.923-.551a107.6,107.6,0,0,1,3.984-11.432l1.848.764A105.665,105.665,0,0,0-1001.951-95.542Zm6.336-16.651-1.8-.867a108.244,108.244,0,0,1,12.849-20.469l1.565,1.246A106.152,106.152,0,0,0-995.615-112.193Zm188.141-5.579a106.324,106.324,0,0,0-6.346-10.035l1.628-1.162a108.291,108.291,0,0,1,6.466,10.225Zm-9.928-14.77a106.789,106.789,0,0,0-16.8-16.74l1.245-1.564a108.608,108.608,0,0,1,17.117,17.054Zm-161.771-4.283-1.493-1.332a109.116,109.116,0,0,1,8.546-8.566l1.335,1.49A106.8,106.8,0,0,0-979.173-136.825Zm12.918-12.25-1.25-1.56a108.184,108.184,0,0,1,20.425-12.9l.872,1.8A106.186,106.186,0,0,0-966.255-149.075Zm127.3-3.774a105.916,105.916,0,0,0-10.064-6.311l.966-1.752a108.33,108.33,0,0,1,10.255,6.43Zm-15.351-9.036a105.214,105.214,0,0,0-22.4-7.791l.439-1.951a107.233,107.233,0,0,1,22.83,7.939Zm-86.49-2.281-.77-1.846a107.711,107.711,0,0,1,11.416-4.016l.556,1.922A105.4,105.4,0,0,0-940.8-164.166Zm16.952-5.429-.447-1.949a108.51,108.51,0,0,1,24.006-2.723l0,2A106.5,106.5,0,0,0-923.847-169.6Zm41.3-1.224a106.66,106.66,0,0,0-11.8-1.294l.107-2a108.745,108.745,0,0,1,12.026,1.32ZM-900.1,49.928A116.4,116.4,0,0,1-1016.367-66.339,116.4,116.4,0,0,1-900.1-182.606,116.4,116.4,0,0,1-783.832-66.339,116.4,116.4,0,0,1-900.1,49.928Zm0-228.534A112.394,112.394,0,0,0-1012.367-66.339,112.394,112.394,0,0,0-900.1,45.928,112.4,112.4,0,0,0-787.832-66.339,112.4,112.4,0,0,0-900.1-178.606Zm0,243.744a131.816,131.816,0,0,1-34.86-4.672l2.645-9.644A121.8,121.8,0,0,0-900.1,55.138a123.543,123.543,0,0,0,14.707-.88l1.2,9.927A133.146,133.146,0,0,1-900.1,65.138Zm28.027-2.994-2.122-9.771A120.343,120.343,0,0,0-831.064,33.63l5.69,8.222A130.237,130.237,0,0,1-872.073,62.144Zm-74.578-5.486a130.843,130.843,0,0,1-43.211-26.929l6.829-7.305A120.9,120.9,0,0,0-943.11,47.306ZM-815.6,34.394l-6.43-7.658A121.362,121.362,0,0,0-792.5-9.9l8.851,4.654A131.323,131.323,0,0,1-815.6,34.394ZM-998.441,20.928a130.737,130.737,0,0,1-25.811-43.889l9.441-3.3a120.793,120.793,0,0,0,23.847,40.548Zm219.994-37.311-9.249-3.8a120.773,120.773,0,0,0,9.073-46.153v-.279h10v.252A130.775,130.775,0,0,1-778.447-16.383Zm-249.308-18.364a132.051,132.051,0,0,1-3.822-31.592,132.883,132.883,0,0,1,1.4-19.252l9.893,1.453a123.065,123.065,0,0,0-1.294,17.8,122.088,122.088,0,0,0,3.531,29.2Zm248.584-43.209a120.259,120.259,0,0,0-13.455-45.058l8.842-4.672A130.206,130.206,0,0,1-769.216-78.9Zm-238.938-17.326-9.714-2.375a130.377,130.377,0,0,1,21.489-46.16l8.075,5.9A120.41,120.41,0,0,0-1018.109-95.282ZM-798.4-132.795a121.486,121.486,0,0,0-32.882-33.659l5.671-8.237a131.452,131.452,0,0,1,35.577,36.417Zm-192.742-13.976-7.492-6.623a131.211,131.211,0,0,1,40.443-30.926l4.423,8.969A121.271,121.271,0,0,0-991.137-146.771Zm150.214-25.682a120.2,120.2,0,0,0-44.73-14.513l1.175-9.93a130.148,130.148,0,0,1,48.433,15.714Zm-102.434-7.437-3.562-9.344a130.971,130.971,0,0,1,46.819-8.582q1.69,0,3.369.043l-.254,10q-1.553-.039-3.115-.039A121,121,0,0,0-943.357-179.89ZM-900.1,36a102.456,102.456,0,0,1-102.34-102.34A102.456,102.456,0,0,1-900.1-168.679,102.456,102.456,0,0,1-797.76-66.339,102.456,102.456,0,0,1-900.1,36Zm0-200.68a98.452,98.452,0,0,0-98.34,98.34A98.453,98.453,0,0,0-900.1,32a98.452,98.452,0,0,0,98.34-98.34A98.451,98.451,0,0,0-900.1-164.679Zm0,182.478a84.234,84.234,0,0,1-84.137-84.138A84.233,84.233,0,0,1-900.1-150.477a84.233,84.233,0,0,1,84.138,84.138A84.234,84.234,0,0,1-900.1,17.8Zm0-166.276a82.23,82.23,0,0,0-82.137,82.138A82.23,82.23,0,0,0-900.1,15.8a82.231,82.231,0,0,0,82.138-82.138A82.231,82.231,0,0,0-900.1-148.477Zm94.146,64.431-.39-1.961-7.822,1.556.391,1.96Zm-65.38-73.676-1.914-.58-2.315,7.632,1.914.58Zm17.272,175.393-3.759-7.034-1.764.944,3.76,7.033Zm-93.991-157.578-4.431-6.629-1.663,1.111,4.431,6.63Zm23.417-10.763-2.315-7.632-1.914.58,2.315,7.632Zm8.385-1.993-1.556-7.822-1.962.391,1.556,7.821Zm-38.779,17.815-5.059-6.164-1.545,1.27,5.058,6.164Zm47.319-18.974-.782-7.935-1.99.2.782,7.936Zm8.611-8.295h-2v7.973h2Zm9.384.555-1.991-.2-.781,7.935,1.99.2Zm-97.67,85.621-7.936-.781-.2,1.99,7.935.781Zm1.352-8.51-7.821-1.556-.39,1.961,7.822,1.555Zm2.184-8.338-7.632-2.316-.581,1.914,7.632,2.316Zm2.995-8.082-7.368-3.052-.765,1.847,7.368,3.052Zm8.3-15.084-6.63-4.43-1.112,1.662,6.631,4.43Zm5.216-6.861-6.164-5.058-1.269,1.547,6.164,5.058Zm-9.736,14.2-7.034-3.76-.943,1.763,7.033,3.76Zm15.6-20.516-5.638-5.639-1.414,1.414,5.638,5.639Zm20.865-15.126-3.759-7.033-1.764.943,3.759,7.033Zm7.831-3.6-3.052-7.368-1.848.766,3.052,7.368ZM-819.9-118.723l-1.111-1.662-6.63,4.43,1.111,1.662Zm11.766,25.532-.581-1.914-7.632,2.316.581,1.914Zm3.455,18.459-.2-1.99-7.935.781.2,1.99Zm-10.466-35.882-.943-1.763-7.033,3.76.943,1.763Zm3.936,8.538-.766-1.847-7.368,3.052.766,1.847Zm-14.216-24.251-1.268-1.547-6.165,5.058,1.269,1.547Zm-55-33.767-1.962-.391-1.555,7.822,1.962.39Zm17.915,5.632-1.847-.766-3.052,7.368,1.847.766Zm30.849,21.1-1.414-1.414-5.638,5.639,1.414,1.414Zm-6.9-6.384-1.546-1.27-5.059,6.164,1.546,1.27Zm-15.5-10.607-1.763-.943-3.76,7.033,1.764.943Zm8.009,4.924-1.663-1.111-4.43,6.629,1.663,1.112Zm0,158.173-4.43-6.631-1.663,1.111,4.43,6.631Zm7.488-5.683L-843.624.9l-1.546,1.27,5.059,6.164Zm6.9-6.386L-837.3-4.958l-1.414,1.414,5.638,5.637Zm-30.849,21.105-3.052-7.368-1.847.765,3.052,7.368Zm-8.818,3.26-2.315-7.632-1.914.58,2.315,7.632Zm-9.1,2.373-1.555-7.822-1.962.391,1.555,7.821Zm-9.285,1.466-.782-7.935-1.99.195.781,7.936Zm-9.384-7.417h-2V29.44h2Zm94.779-88.8h-7.974v2h7.974Zm-.36,9.393-7.936-.782-.2,1.99,7.935.783Zm-1.273,9.315-7.821-1.556-.391,1.961,7.822,1.556Zm-2.182,9.143-7.632-2.314-.58,1.914,7.632,2.314ZM-819.9-13.954l-6.63-4.431-1.111,1.662,6.63,4.431Zm-5.525,7.6-6.164-5.058-1.269,1.546L-826.7-4.8ZM-811.211-30.6l-7.368-3.052-.766,1.848,7.368,3.052Zm-3.936,8.538-7.033-3.759-.943,1.764,7.033,3.759ZM-987.905-67.339h-7.974v2h7.974ZM-967.34-9.863l-1.269-1.546-6.164,5.058L-973.5-4.8Zm-5.216-6.86-1.111-1.662-6.631,4.431,1.112,1.662Zm-4.521-7.337-.942-1.764-7.033,3.759.942,1.764Zm-3.778-7.747-.765-1.848-7.368,3.052.765,1.848ZM-961.48-3.544l-1.414-1.414L-968.532.679l1.414,1.414Zm-24.554-44.682-.389-1.961-7.822,1.556.39,1.961Zm-1.352-8.512-.2-1.99-7.935.782.2,1.991Zm3.535,16.85-.58-1.914-7.632,2.314.58,1.914Zm51.067,55.069-1.848-.765-3.052,7.368,1.848.765Zm-7.831-3.6-1.764-.944-3.759,7.034,1.764.943Zm15.979,6.411-1.914-.58-2.315,7.632,1.914.58ZM-955.03,2.171-956.576.9l-5.058,6.164,1.545,1.27Zm6.977,5.057-1.663-1.111-4.431,6.631,1.663,1.111Zm40.342,13.915-1.99-.195-.782,7.935,1.99.2Zm-8.54-1.157-1.962-.391-1.556,7.822,1.962.39ZM-900.1,74.245c-77.518,0-140.583-63.066-140.583-140.584S-977.618-206.923-900.1-206.923s140.584,63.065,140.584,140.584S-822.582,74.245-900.1,74.245Zm0-277.168c-75.312,0-136.583,61.271-136.583,136.584S-975.412,70.245-900.1,70.245-763.516,8.973-763.516-66.339-824.787-202.923-900.1-202.923ZM-917.41-52.7l11.5-42.455h-1.412a21.63,21.63,0,0,0-20.9,16.032l-11.264,41.6h46.678A21.619,21.619,0,0,0-872.23-52.543l-39.988-.158Zm30.94-15.23-3.268,12.2h18.14l2.974-11.1h-9.784l-1.073,4h5.038l-.829,3.1h-8.649l2.742-10.234h13.4l1.072-4h-18.143Zm14.058-23.17H-861.8l1.086-4.056h-12.046a8.251,8.251,0,0,0-7.97,6.115l-3.31,12.356h18.377l3.016-11.24h-9.91l-1.086,4.054h5.1l-.84,3.136h-8.76l2.011-7.51A3.854,3.854,0,0,1-872.412-91.1ZM-900.1-138.282a72.025,72.025,0,0,0-71.943,71.943A72.025,72.025,0,0,0-900.1,5.6a72.025,72.025,0,0,0,71.944-71.943A72.025,72.025,0,0,0-900.1-138.282Zm36.654,88.528a29.959,29.959,0,0,1-28.938,22.205h-4.832l-4.072,15.2a6.668,6.668,0,0,1-6.441,4.942h-4.65l5.4-20.139h-7.328l-4.071,15.2a6.669,6.669,0,0,1-6.441,4.942h-4.65l5.4-20.139h-27.514l14.838-55.376a29.958,29.958,0,0,1,28.938-22.2h4.525l4.071-15.2a6.669,6.669,0,0,1,6.441-4.942h4.651l-5.4,20.139h7.327l4.072-15.2a6.667,6.667,0,0,1,6.441-4.942h4.65l-5.4,20.139h27.82Zm-36.654-94.9a78.313,78.313,0,0,0-78.313,78.314A78.313,78.313,0,0,0-900.1,11.975a78.314,78.314,0,0,0,78.314-78.314A78.314,78.314,0,0,0-900.1-144.653Zm0,152.257a74.027,74.027,0,0,1-73.943-73.943A74.027,74.027,0,0,1-900.1-140.282a74.027,74.027,0,0,1,73.944,73.943A74.027,74.027,0,0,1-900.1,7.6Z" transform="translate(1040.683 206.923)" fill="url(#linear-gradient)"/>
</svg>
